<svg width="53" height="53" viewBox="0 0 53 53" fill="none" xmlns="http://www.w3.org/2000/svg">
<g >
<rect x="-0.8" y="0.8" width="51.2" height="51.2" rx="25.6" transform="matrix(-1 0 0 1 51.1998 0)" fill="white"/>
<rect x="-0.8" y="0.8" width="51.2" height="51.2" rx="25.6" transform="matrix(-1 0 0 1 51.1998 0)" stroke="#6B6B6B" stroke-width="1.6"/>
<g clip-path="url(#clip0_8_545)">
<path d="M12.9798 25.9642L19.1614 19.7825C19.3835 19.5232 19.7738 19.493 20.0331 19.7151C20.2924 19.9371 20.3226 20.3274 20.1005 20.5867C20.0798 20.6109 20.0572 20.6334 20.0331 20.6541L14.9084 25.7849H39.3818C39.7232 25.7849 40 26.0617 40 26.4031C40 26.7446 39.7232 27.0213 39.3818 27.0213H14.9084L20.0331 32.1459C20.2924 32.368 20.3226 32.7582 20.1005 33.0175C19.8784 33.2768 19.4882 33.307 19.2289 33.0849C19.2047 33.0642 19.1821 33.0417 19.1614 33.0175L12.9797 26.8358C12.7401 26.5948 12.7401 26.2054 12.9798 25.9642Z" fill="black"/>
</g>
</g>
<defs>
<clipPath id="clip0_8_545">
<rect width="27.2" height="27.2" fill="white" transform="matrix(-1 0 0 1 40 12.8)"/>
</clipPath>
</defs>
</svg>
