<svg width="24" height="13" viewBox="0 0 24 13" fill="none" xmlns="http://www.w3.org/2000/svg">
<path d="M23.8414 6.4154L18.387 0.960931C18.191 0.732138 17.8467 0.705467 17.6179 0.901448C17.3891 1.09738 17.3624 1.44172 17.5584 1.67051C17.5767 1.69184 17.5966 1.71176 17.6179 1.73L22.1396 6.2572H0.545428C0.244214 6.2572 0 6.50141 0 6.80267C0 7.10393 0.244214 7.3481 0.545428 7.3481H22.1396L17.6179 11.8698C17.3891 12.0658 17.3624 12.4101 17.5584 12.6389C17.7544 12.8677 18.0987 12.8943 18.3275 12.6984C18.3488 12.6801 18.3687 12.6602 18.387 12.6389L23.8414 7.18442C24.0529 6.97175 24.0529 6.62816 23.8414 6.4154Z" fill="#007A3D"/>
</svg>
