<svg width="54" height="53" viewBox="0 0 54 53" fill="none" xmlns="http://www.w3.org/2000/svg">
<rect x="1.5998" y="0.8" width="51.2" height="51.2" rx="25.6" fill="white"/>
<rect x="1.5998" y="0.8" width="51.2" height="51.2" rx="25.6" stroke="#6B6B6B" stroke-width="1.6"/>
<g clip-path="url(#clip0_8_544)">
<path d="M40.6198 25.9642L34.4382 19.7825C34.2161 19.5232 33.8259 19.493 33.5666 19.7151C33.3073 19.9371 33.277 20.3274 33.4991 20.5867C33.5199 20.6109 33.5424 20.6334 33.5666 20.6541L38.6912 25.7849H14.2178C13.8764 25.7849 13.5996 26.0617 13.5996 26.4031C13.5996 26.7446 13.8764 27.0213 14.2178 27.0213H38.6912L33.5666 32.1459C33.3073 32.368 33.277 32.7582 33.4991 33.0175C33.7213 33.2768 34.1114 33.307 34.3707 33.0849C34.3949 33.0642 34.4175 33.0417 34.4382 33.0175L40.6199 26.8358C40.8595 26.5948 40.8595 26.2054 40.6198 25.9642Z" fill="black"/>
</g>
<defs>
<clipPath id="clip0_8_544">
<rect width="27.2" height="27.2" fill="white" transform="translate(13.5996 12.8)"/>
</clipPath>
</defs>
</svg>
