<svg width="164" height="108" viewBox="0 0 164 108" fill="none" xmlns="http://www.w3.org/2000/svg">
<g clip-path="url(#clip0_20_601)">
<path d="M45.013 50.6806C45.4806 51.2245 46.1619 51.5365 46.8824 51.5365H55.3508C56.4504 51.5365 57.5197 51.1561 58.364 50.465C59.2083 49.7739 59.7809 48.8103 59.978 47.749L65.9451 15.5255L67.3708 7.66138C67.5061 6.94496 67.3089 6.21587 66.8299 5.65795C66.591 5.38026 66.2939 5.16344 65.9641 5.01888C65.6531 4.88194 65.3119 4.80713 64.9605 4.80713H54.4824C54.1171 4.80713 53.7721 4.89462 53.4586 5.0379C52.7521 5.36124 52.2149 6.00031 52.0658 6.80168L44.4708 48.6835C44.3368 49.3961 44.534 50.1239 45.013 50.6806ZM45.5577 48.842L46.9734 40.8016L48.1703 34.0001H48.2575H49.3812H60.2751H61.3102L58.891 47.4599C58.7368 48.3158 58.2907 49.0537 57.6663 49.5812C57.0368 50.1125 56.2254 50.4282 55.352 50.4282H46.8836C46.4842 50.4282 46.1063 50.2482 45.851 49.9413C45.6614 49.7156 45.5552 49.4367 45.5401 49.1488C45.5337 49.0461 45.5388 48.9434 45.5577 48.842Z" fill="black"/>
<path d="M10.7549 50.4254H21.2343C21.889 50.4254 22.4476 49.9537 22.5614 49.307L25.4305 32.8421H37.4127C38.0624 32.8421 38.6198 32.3768 38.7373 31.7365L40.2085 23.7443C40.2818 23.35 40.1757 22.9429 39.9191 22.6348C39.6638 22.3267 39.2833 22.1479 38.8839 22.1479H27.3682L28.4981 15.567H44.8902C45.5424 15.567 46.1023 15.0979 46.216 14.4525L47.6873 6.15344C47.7568 5.76037 47.6493 5.35588 47.394 5.04902C47.1375 4.74217 46.7595 4.56592 46.3614 4.56592H18.3537C17.7003 4.56592 17.1416 5.03634 17.0279 5.68175L9.4278 48.8391C9.35829 49.2322 9.46699 49.6367 9.7223 49.9423C9.97888 50.2479 10.3568 50.4254 10.7549 50.4254ZM13.2639 34.8215L13.4092 33.9986L15.0624 24.6065L27.5565 24.8589L35.3171 31.4917H24.2981L23.8607 33.9998L23.7166 34.8228L21.233 49.075H10.7549L13.2639 34.8215Z" fill="black"/>
<path d="M69.0113 50.4255H93.2183C93.8717 50.4255 94.4304 49.9551 94.5441 49.3097L95.9534 41.3175C96.0229 40.9244 95.9155 40.5199 95.6589 40.2144C95.4024 39.9088 95.0244 39.7313 94.6263 39.7313H82.5038L88.4153 6.14974C88.4848 5.75666 88.3761 5.35217 88.1208 5.04658C87.8642 4.741 87.4863 4.56348 87.0882 4.56348H76.6088C75.9554 4.56348 75.3967 5.0339 75.283 5.67931L67.6842 48.838C67.6146 49.2311 67.7233 49.6355 67.9787 49.9411C68.2352 50.248 68.6131 50.4255 69.0113 50.4255ZM71.5215 34.8216L71.6668 33.9987H75.6331H82.1474L82.0021 34.8216L80.8999 41.0817H94.6276L93.2183 49.0738H69.0113L71.5215 34.8216Z" fill="black"/>
<path d="M98.2427 50.4255H147.05L144.2 80.8079L133.235 57.913C133.011 57.4451 132.538 57.1471 132.021 57.1471H121.543C120.89 57.1471 120.331 57.6176 120.218 58.263L112.617 101.418C112.548 101.811 112.657 102.215 112.912 102.521C113.169 102.827 113.546 103.004 113.945 103.004H124.423C125.075 103.004 125.635 102.535 125.749 101.89L129.738 79.3839L140.735 102.239C140.96 102.706 141.431 103.004 141.948 103.004H152.432C153.089 103.004 153.65 102.529 153.76 101.878L161.738 41.5229L161.775 41.3175C161.844 40.9244 161.737 40.5199 161.48 40.2144C161.225 39.9075 160.847 39.7313 160.447 39.7313H111.738L117.648 6.14974C117.717 5.75666 117.609 5.35217 117.353 5.04658C117.097 4.741 116.719 4.56348 116.321 4.56348H105.843C105.189 4.56348 104.631 5.0339 104.517 5.67931L96.918 48.838C96.8485 49.2311 96.9572 49.6355 97.2125 49.9411C97.4666 50.248 97.8445 50.4255 98.2427 50.4255ZM100.753 34.8216L100.898 33.9987H111.379L111.233 34.8216L110.131 41.0817H160.445L160.408 41.2883L156.451 71.2269L156.342 72.0499L152.429 101.654H141.946L129.138 75.036L124.42 101.654H113.942L119.156 72.0499L119.301 71.2269L121.542 58.4988H132.02L138.116 71.2269L138.511 72.0499L144.829 85.2421L146.219 72.0499L146.307 71.2269L148.64 49.0751H98.2427L100.753 34.8216Z" fill="black"/>
<path d="M6.8242 99.6136C9.81595 102.151 13.7683 103.437 18.5713 103.437C22.2114 103.437 25.6417 102.735 28.7675 101.353C31.9197 99.956 34.6321 97.8016 36.8276 94.9474C39.0117 92.102 40.4905 88.5846 41.2211 84.4903L43.9954 68.7266C44.0308 68.5288 44.0156 68.3322 43.9663 68.1458L44.9952 60.9221C45.2796 58.9288 43.7376 57.146 41.7304 57.146H35.144C33.5186 57.146 32.1359 58.3341 31.8856 59.9445L28.5539 81.3685L28.0875 84.0224C27.6931 86.287 26.8273 88.033 25.5128 89.211C24.2059 90.3852 22.535 90.9558 20.4052 90.9558C18.6863 90.9558 17.4097 90.5728 16.6096 89.8184C15.8222 89.0753 15.4405 87.9798 15.4405 86.4696C15.4405 86.2743 15.4708 85.7532 15.6667 84.489L20.2017 58.7323C20.2713 58.3392 20.1626 57.9347 19.9072 57.6291C19.6507 57.3235 19.2727 57.146 18.8746 57.146H8.39654C7.74182 57.146 7.1819 57.619 7.06941 58.2644L2.5938 84.035C2.33722 85.5934 2.20703 87.0744 2.20703 88.435C2.2083 93.2597 3.76168 97.0206 6.8242 99.6136ZM3.92346 84.2557L6.04435 72.0487L6.18718 71.2258L8.39907 58.4977H18.8771L16.6362 71.2258L16.4908 72.0487L14.3421 84.2557C14.1765 85.3233 14.0956 86.0613 14.0956 86.4721C14.0956 88.3551 14.6252 89.8006 15.6895 90.8049C15.8171 90.9253 15.9536 91.0382 16.0965 91.1447C17.1405 91.922 18.5751 92.3087 20.4078 92.3087C22.8585 92.3087 24.8606 91.6151 26.414 90.219C27.9674 88.8281 28.9684 86.8373 29.4171 84.2557L29.6699 82.8152L29.7736 82.1749L30.2753 79.081L30.3752 78.466C30.3739 78.466 30.3727 78.466 30.3714 78.466L32.2572 66.3415L33.147 60.1993C33.2886 59.223 34.1228 58.4977 35.1074 58.4977H35.1453C35.1466 58.4977 35.1466 58.4977 35.1466 58.4977H41.733H41.7342H41.7507C42.9514 58.4977 43.8766 59.5577 43.7136 60.7509C43.4772 62.488 43.1372 64.9568 42.8187 67.1555C42.8162 67.1758 42.8124 67.1974 42.8098 67.2177L42.6721 68.492L42.1905 71.2258L42.0452 72.0487L41.5497 74.8624L40.7989 79.1292L39.8965 84.2544C39.2 88.1497 37.8223 91.4376 35.7621 94.1219C33.6968 96.8063 31.1829 98.8059 28.224 100.116C25.2613 101.427 22.042 102.084 18.5713 102.084C14.0729 102.084 10.4504 100.917 7.69379 98.5802C7.64324 98.5371 7.59647 98.4914 7.54718 98.4483C4.88658 96.1165 3.55439 92.7791 3.55439 88.4337C3.55439 87.1239 3.68079 85.7329 3.92346 84.2557Z" fill="black"/>
<path d="M67.7638 71.6288C68.0191 71.9546 68.4096 72.1448 68.8217 72.1448H79.9734C80.6446 72.1448 81.2134 71.649 81.3069 70.9833C81.3574 70.622 81.3827 70.116 81.3827 69.4377C81.3827 66.7774 80.6572 64.4316 79.2252 62.4675C77.8134 60.5249 75.8226 59.0249 73.3061 58.0105C70.8756 57.0278 68.0671 56.5308 64.9591 56.5308C61.5199 56.5308 58.4119 57.128 55.7235 58.3047C52.9656 59.5042 50.7726 61.2769 49.2041 63.5719C47.6178 65.8911 46.8355 68.6363 46.8797 71.7124C46.8797 74.289 47.5243 76.4814 48.7958 78.2299C50.0029 79.8872 51.4476 81.2211 53.0932 82.1962C54.6289 83.1015 56.6335 84.0703 59.0502 85.0758C61.3859 86.0496 63.1251 86.9322 64.2159 87.6993C65.0172 88.2635 65.3901 88.928 65.3901 89.7915C65.3901 90.6296 65.1209 91.2256 64.5458 91.6643C63.8708 92.1766 62.8749 92.4352 61.5869 92.4352C60.2218 92.4352 59.2309 92.1208 58.6419 91.502C58.0567 90.887 57.8153 90.0197 57.9063 88.8519C57.9354 88.4766 57.8065 88.105 57.5524 87.8299C57.2971 87.5535 56.9394 87.3962 56.564 87.3962H45.6549C44.9686 87.3962 44.391 87.9148 44.3164 88.5996C44.2292 89.3908 44.1875 89.9817 44.1875 90.4052C44.1875 94.5908 45.8572 97.8711 49.1485 100.154C52.2805 102.333 56.363 103.439 61.2835 103.439C64.8517 103.439 68.0254 102.83 70.7138 101.629C73.4742 100.402 75.6255 98.6586 77.1081 96.4472C78.6033 94.2168 79.3617 91.6668 79.3617 88.8696C79.3617 86.2994 78.7221 84.0842 77.4607 82.2837C76.2549 80.5618 74.7925 79.1632 73.1102 78.1247C71.5404 77.1623 69.5017 76.1022 67.0522 74.9775C64.7303 73.9111 63.0164 72.9754 61.9585 72.1968C60.9107 71.4271 60.7894 70.6765 60.7894 70.1794C60.7894 69.3628 61.0548 68.7922 61.6539 68.3269C62.325 67.8019 63.2515 67.5357 64.408 67.5357C65.4482 67.5357 66.247 67.7817 66.788 68.2686C67.2986 68.7263 67.5375 69.2956 67.5375 70.0577C67.5375 70.3658 67.5135 70.4749 67.5122 70.4787C67.4149 70.8781 67.5072 71.3029 67.7638 71.6288ZM64.408 66.1815C62.9406 66.1815 61.7411 66.5416 60.826 67.258C59.9059 67.9744 59.4433 68.9469 59.4433 70.1769C59.4433 70.5446 59.5014 70.8933 59.6038 71.2268C59.6923 71.5146 59.8199 71.7885 59.9842 72.0497C60.2673 72.4986 60.6554 72.912 61.1622 73.2848C62.3023 74.1229 64.0806 75.0954 66.491 76.2037C68.9013 77.3119 70.8731 78.3339 72.4075 79.2747C73.9381 80.2207 75.2539 81.4811 76.3586 83.0584C77.4632 84.6345 78.0156 86.572 78.0156 88.8684C78.0156 91.4082 77.3381 93.6829 75.9908 95.6914C74.6434 97.6999 72.7007 99.2672 70.1678 100.393C67.6361 101.523 64.6722 102.086 61.2835 102.086C56.6234 102.086 52.8341 101.073 49.9169 99.0415C46.9947 97.0152 45.5349 94.1318 45.5349 90.4027C45.5349 90.0337 45.5753 89.4796 45.6562 88.7454H56.5653C56.4439 90.3037 56.8117 91.5337 57.6699 92.434C58.5269 93.3342 59.8338 93.7857 61.5894 93.7857C63.1833 93.7857 64.4396 93.4382 65.361 92.7408C66.2774 92.0434 66.7387 91.0607 66.7387 89.7915C66.7387 88.4804 66.1548 87.4127 64.992 86.5936C63.8253 85.7745 62.0204 84.8501 59.5684 83.8281C57.1985 82.8416 55.2672 81.9096 53.777 81.0309C52.2868 80.1484 50.9888 78.9501 49.8853 77.4324C48.8363 75.9906 48.2915 74.1939 48.2397 72.0497C48.2372 71.9369 48.2296 71.8278 48.2296 71.7124C48.227 71.5476 48.2359 71.3878 48.2384 71.2255C48.2814 68.6071 48.969 66.307 50.3163 64.3353C51.7433 62.2456 53.7239 60.6467 56.2607 59.5435C58.7923 58.4353 61.6931 57.8812 64.9616 57.8812C67.9028 57.8812 70.5192 58.3402 72.8044 59.2633C75.0934 60.1864 76.8717 61.5203 78.1382 63.2625C79.4047 65.001 80.0366 67.064 80.0366 69.4377C80.0366 70.0539 80.0139 70.5053 79.9734 70.7931H68.8217C68.8621 70.627 68.8849 70.3836 68.8849 70.0539C68.8849 68.9051 68.4855 67.9731 67.6867 67.2567C66.8917 66.5416 65.7958 66.1815 64.408 66.1815Z" fill="black"/>
<path d="M114.975 57.6291C114.718 57.3235 114.34 57.146 113.942 57.146H103.464C102.81 57.146 102.252 57.6164 102.138 58.2618L94.5367 101.417C94.4672 101.81 94.5759 102.214 94.8312 102.52C95.0878 102.825 95.4657 103.003 95.8638 103.003H106.342C106.995 103.003 107.554 102.533 107.668 101.887L115.269 58.7323C115.337 58.3392 115.23 57.936 114.975 57.6291ZM111.701 71.2258L111.556 72.0487L106.342 101.653H95.8638L101.078 72.0487L101.223 71.2258L103.464 58.4977H113.942L111.701 71.2258Z" fill="black"/>
<path d="M94.6275 41.0815H80.8998L82.002 34.8215L82.1474 33.9985H75.6317H71.6655L71.5214 34.8215L69.0112 49.0737H93.2182L94.6275 41.0815Z" fill="white"/>
<path d="M119.301 71.2257H138.116L132.021 58.4976H121.542L119.301 71.2257Z" fill="white"/>
<path d="M146.305 71.2255H156.452L160.41 41.287L160.446 41.0815H110.131L111.233 34.8215L111.379 33.9985H100.898L100.753 34.8215L98.2427 49.0737H148.64L146.305 71.2255Z" fill="white"/>
<path d="M50.3162 64.3354C48.9676 66.3072 48.28 68.6073 48.2383 71.2257H59.6049C59.5025 70.8922 59.4444 70.5448 59.4444 70.1758C59.4444 68.9458 59.907 67.9733 60.8271 67.2569C61.7435 66.5405 62.9417 66.1804 64.4091 66.1804C65.7969 66.1804 66.8915 66.5405 67.6865 67.2569C68.4853 67.9733 68.8847 68.9053 68.8847 70.0541C68.8847 70.3825 68.862 70.6259 68.8215 70.7933H79.9733C80.0137 70.5055 80.0365 70.0541 80.0365 69.4378C80.0365 67.0641 79.4032 65.0011 78.138 63.2627C76.8716 61.5192 75.0945 60.1866 72.8042 59.2635C70.519 58.3404 67.9014 57.8813 64.9615 57.8813C61.6929 57.8813 58.7934 58.4355 56.2605 59.5437C53.7238 60.6468 51.7432 62.2445 50.3162 64.3354Z" fill="white"/>
<path d="M111.701 71.2257L113.942 58.4976H103.464L101.222 71.2257H111.701Z" fill="white"/>
<path d="M47.9945 41.6395L56.7915 48.8632L57.6636 49.5796C58.288 49.0534 58.7355 48.3142 58.8884 47.4583L61.3076 33.9985H60.2724H49.3785H48.2549H48.1677L46.9707 40.8L47.0149 40.8368L47.9945 41.6395Z" fill="white"/>
<path d="M42.8088 67.2178C42.7405 67.6869 42.6735 68.1421 42.6091 68.5745C42.6066 68.5885 42.6053 68.6024 42.6028 68.6176C42.4448 69.6701 42.3019 70.5881 42.1895 71.2259L42.671 68.4921L42.8088 67.2178Z" fill="white"/>
<path d="M72.409 79.2735C70.8734 78.3327 68.9029 77.3094 66.4925 76.2025C64.0822 75.0942 62.3038 74.1217 61.1638 73.2835C60.6569 72.9108 60.2689 72.4974 59.9858 72.0485C59.8202 71.7873 59.6938 71.5134 59.6053 71.2256H48.2387C48.2362 71.3879 48.2273 71.5477 48.2299 71.7125C48.2299 71.8266 48.2375 71.9369 48.24 72.0498C48.2931 74.1952 48.8366 75.9907 49.8856 77.4324C50.9903 78.9502 52.2871 80.1485 53.7773 81.031C55.2675 81.9097 57.1988 82.8417 59.5687 83.8282C62.0195 84.8502 63.8244 85.7745 64.9922 86.5937C66.1551 87.4128 66.739 88.4804 66.739 89.7915C66.739 91.0621 66.2764 92.0435 65.3613 92.7409C64.4412 93.4396 63.1835 93.7857 61.5897 93.7857C59.8341 93.7857 58.5285 93.3356 57.6702 92.434C56.8133 91.5338 56.4442 90.3038 56.5656 88.7454H45.6565C45.5756 89.4796 45.5352 90.0337 45.5352 90.4027C45.5352 94.1319 46.9937 97.014 49.9172 99.0415C52.8357 101.073 56.625 102.086 61.2838 102.086C64.6737 102.086 67.6364 101.523 70.1681 100.393C72.6998 99.2672 74.6437 97.7 75.991 95.6915C77.3384 93.683 78.0159 91.4082 78.0159 88.8684C78.0159 86.5721 77.4635 84.6346 76.3589 83.0585C75.2554 81.4811 73.9397 80.2195 72.409 79.2735Z" fill="#007A3D"/>
<path d="M146.305 71.2256L146.219 72.0485L144.829 85.2407L138.51 72.0485L138.116 71.2256H119.301L119.156 72.0485L113.942 101.654H124.42L129.138 75.0359L141.947 101.654H152.429L156.343 72.0485L156.452 71.2256H146.305Z" fill="#007A3D"/>
<path d="M101.078 72.0485L95.8638 101.654H106.342L111.556 72.0485L111.701 71.2256H101.222L101.078 72.0485Z" fill="#007A3D"/>
<path d="M41.201 71.2256H39.5364H37.8845H31.5496L31.5483 71.2294L30.3754 78.4658L30.2755 79.0808L29.7737 82.1747L29.6701 82.815L29.4173 84.2555C28.9686 86.8358 27.9676 88.8266 26.4142 90.2189C24.8608 91.6149 22.8587 92.3085 20.408 92.3085C18.5752 92.3085 17.1394 91.9205 16.0967 91.1445L7.54736 98.4507C7.59666 98.4938 7.64342 98.5394 7.69398 98.5825C10.4506 100.919 14.0731 102.086 18.5714 102.086C22.0422 102.086 25.2602 101.428 28.2242 100.118C31.183 98.8082 33.697 96.8073 35.7623 94.1243C37.8225 91.4399 39.2015 88.152 39.8966 84.2567L40.7991 79.1315L41.5499 74.8647L42.0453 72.0511L42.1907 71.2281H42.1705H41.201V71.2256Z" fill="#007A3D"/>
<path d="M23.7178 34.8217L23.8607 33.9988L24.298 31.4907H35.317L27.5564 24.8578L15.0624 24.6055L13.4092 33.9988L13.2638 34.8217L10.7549 49.0739H21.2329L23.7178 34.8217Z" fill="#FF0000"/>
<path d="M7.54719 98.4493L16.0965 91.1431C15.9537 91.0366 15.8171 90.9237 15.6895 90.8033C14.6253 89.799 14.0957 88.3535 14.0957 86.4705C14.0957 86.061 14.1766 85.3217 14.3421 84.2541L16.4908 72.0471L16.6362 71.2242L18.8771 58.4961H8.39908L6.18719 71.2242L6.04436 72.0471L3.92347 84.2541C3.6808 85.7313 3.55566 87.1236 3.55566 88.4334C3.5544 92.7801 4.88659 96.1174 7.54719 98.4493Z" fill="#FF0000"/>
<path d="M46.882 50.4269H55.3504C56.2238 50.4269 57.0353 50.1112 57.6647 49.5799L56.7926 48.8635L47.9956 41.6397L47.0173 40.8371L46.973 40.8003L45.5574 48.8406C45.5385 48.9433 45.5334 49.0448 45.5385 49.1475C45.5536 49.4353 45.6598 49.7143 45.8494 49.94C46.1047 50.2468 46.4814 50.4269 46.882 50.4269Z" fill="#FF0000"/>
<path d="M35.1073 58.4976C34.124 58.4976 33.2885 59.2216 33.1469 60.1992L32.2571 66.3414L31.5493 71.2244V71.2257H37.8842H39.5362H41.2008H42.1689H42.1892C42.3017 70.5891 42.4445 69.6698 42.6025 68.6174C42.605 68.6035 42.6063 68.5895 42.6088 68.5743C42.6732 68.1406 42.7402 67.6867 42.8085 67.2175C42.811 67.196 42.8148 67.1757 42.8173 67.1554C43.1359 64.958 43.4759 62.4892 43.7122 60.7508C43.8753 59.5576 42.9501 58.4976 41.7493 58.4976H41.7329H35.144H35.1073Z" fill="#FF0000"/>
</g>
<defs>
<clipPath id="clip0_20_601">
<rect width="164" height="108" fill="white"/>
</clipPath>
</defs>
</svg>
