<svg width="1298" height="852" viewBox="0 0 1298 852" fill="none" xmlns="http://www.w3.org/2000/svg">
<g clip-path="url(#clip0_5_100)">
<path d="M356.13 399.69C359.83 403.98 365.22 406.44 370.92 406.44H437.92C446.62 406.44 455.08 403.44 461.76 397.99C468.44 392.54 472.97 384.94 474.53 376.57L521.74 122.44L533.02 60.42C534.09 54.77 532.53 49.02 528.74 44.62C526.85 42.43 524.5 40.72 521.89 39.58C519.43 38.5 516.73 37.91 513.95 37.91H431.05C428.16 37.91 425.43 38.6 422.95 39.73C417.36 42.28 413.11 47.32 411.93 53.64L351.84 383.94C350.78 389.56 352.34 395.3 356.13 399.69ZM360.44 385.19L371.64 321.78L381.11 268.14H381.8H390.69H476.88H485.07L465.93 374.29C464.71 381.04 461.18 386.86 456.24 391.02C451.26 395.21 444.84 397.7 437.93 397.7H370.93C367.77 397.7 364.78 396.28 362.76 393.86C361.26 392.08 360.42 389.88 360.3 387.61C360.25 386.8 360.29 385.99 360.44 385.19Z" fill="black"/>
<path d="M85.0901 397.68H168C173.18 397.68 177.6 393.96 178.5 388.86L201.2 259.01H296C301.14 259.01 305.55 255.34 306.48 250.29L318.12 187.26C318.7 184.15 317.86 180.94 315.83 178.51C313.81 176.08 310.8 174.67 307.64 174.67H216.53L225.47 122.77H355.16C360.32 122.77 364.75 119.07 365.65 113.98L377.29 48.53C377.84 45.43 376.99 42.24 374.97 39.82C372.94 37.4 369.95 36.01 366.8 36.01H145.21C140.04 36.01 135.62 39.72 134.72 44.81L74.5901 385.17C74.0401 388.27 74.9001 391.46 76.9201 393.87C78.9501 396.28 81.9401 397.68 85.0901 397.68ZM104.94 274.62L106.09 268.13L119.17 194.06L218.02 196.05L279.42 248.36H192.24L188.78 268.14L187.64 274.63L167.99 387.03H85.0901L104.94 274.62Z" fill="black"/>
<path d="M546 397.68H737.52C742.69 397.68 747.11 393.97 748.01 388.88L759.16 325.85C759.71 322.75 758.86 319.56 756.83 317.15C754.8 314.74 751.81 313.34 748.66 313.34H652.75L699.52 48.5C700.07 45.4 699.21 42.21 697.19 39.8C695.16 37.39 692.17 35.99 689.02 35.99H606.11C600.94 35.99 596.52 39.7 595.62 44.79L535.5 385.16C534.95 388.26 535.81 391.45 537.83 393.86C539.86 396.28 542.85 397.68 546 397.68ZM565.86 274.62L567.01 268.13H598.39H649.93L648.78 274.62L640.06 323.99H748.67L737.52 387.02H546L565.86 274.62Z" fill="black"/>
<path d="M777.27 397.68H1163.42L1140.87 637.29L1054.12 456.73C1052.35 453.04 1048.61 450.69 1044.52 450.69H961.62C956.45 450.69 952.03 454.4 951.13 459.49L891 799.83C890.45 802.93 891.31 806.12 893.33 808.53C895.36 810.94 898.35 812.34 901.5 812.34H984.4C989.56 812.34 993.99 808.64 994.89 803.55L1026.45 626.06L1113.46 806.31C1115.24 809.99 1118.97 812.34 1123.06 812.34H1206C1211.2 812.34 1215.64 808.59 1216.51 803.46L1279.63 327.47L1279.92 325.85C1280.47 322.75 1279.62 319.56 1277.59 317.15C1275.57 314.73 1272.58 313.34 1269.42 313.34H884.04L930.8 48.5C931.35 45.4 930.49 42.21 928.47 39.8C926.44 37.39 923.45 35.99 920.3 35.99H837.4C832.23 35.99 827.81 39.7 826.91 44.79L766.79 385.16C766.24 388.26 767.1 391.45 769.12 393.86C771.13 396.28 774.12 397.68 777.27 397.68ZM797.13 274.62L798.28 268.13H881.2L880.05 274.62L871.33 323.99H1269.4L1269.11 325.62L1237.8 561.73L1236.94 568.22L1205.98 801.69H1123.04L1021.71 591.77L984.38 801.69H901.48L942.73 568.22L943.88 561.73L961.61 461.35H1044.51L1092.74 561.73L1095.86 568.22L1145.85 672.26L1156.85 568.22L1157.54 561.73L1176 387.03H777.27L797.13 274.62Z" fill="black"/>
<path d="M53.99 785.6C77.66 805.61 108.93 815.75 146.93 815.75C175.73 815.75 202.87 810.22 227.6 799.32C252.54 788.3 274 771.31 291.37 748.8C308.65 726.36 320.35 698.62 326.13 666.33L348.08 542.01C348.36 540.45 348.24 538.9 347.85 537.43L355.99 480.46C358.24 464.74 346.04 450.68 330.16 450.68H278.05C265.19 450.68 254.25 460.05 252.27 472.75L225.91 641.71L222.22 662.64C219.1 680.5 212.25 694.27 201.85 703.56C191.51 712.82 178.29 717.32 161.44 717.32C147.84 717.32 137.74 714.3 131.41 708.35C125.18 702.49 122.16 693.85 122.16 681.94C122.16 680.4 122.4 676.29 123.95 666.32L159.83 463.19C160.38 460.09 159.52 456.9 157.5 454.49C155.47 452.08 152.48 450.68 149.33 450.68H66.43C61.25 450.68 56.82 454.41 55.93 459.5L20.52 662.74C18.49 675.03 17.46 686.71 17.46 697.44C17.47 735.49 29.76 765.15 53.99 785.6ZM31.04 664.48L47.82 568.21L48.95 561.72L66.45 461.34H149.35L131.62 561.72L130.47 568.21L113.47 664.48C112.16 672.9 111.52 678.72 111.52 681.96C111.52 696.81 115.71 708.21 124.13 716.13C125.14 717.08 126.22 717.97 127.35 718.81C135.61 724.94 146.96 727.99 161.46 727.99C180.85 727.99 196.69 722.52 208.98 711.51C221.27 700.54 229.19 684.84 232.74 664.48L234.74 653.12L235.56 648.07L239.53 623.67L240.32 618.82C240.31 618.82 240.3 618.82 240.29 618.82L255.21 523.2L262.25 474.76C263.37 467.06 269.97 461.34 277.76 461.34H278.06C278.07 461.34 278.07 461.34 278.07 461.34H330.18H330.19H330.32C339.82 461.34 347.14 469.7 345.85 479.11C343.98 492.81 341.29 512.28 338.77 529.62C338.75 529.78 338.72 529.95 338.7 530.11L337.61 540.16L333.8 561.72L332.65 568.21L328.73 590.4L322.79 624.05L315.65 664.47C310.14 695.19 299.24 721.12 282.94 742.29C266.6 763.46 246.71 779.23 223.3 789.56C199.86 799.9 174.39 805.08 146.93 805.08C111.34 805.08 82.68 795.88 60.87 777.45C60.47 777.11 60.1 776.75 59.71 776.41C38.66 758.02 28.12 731.7 28.12 697.43C28.12 687.1 29.12 676.13 31.04 664.48Z" fill="black"/>
<path d="M536.13 564.9C538.15 567.47 541.24 568.97 544.5 568.97H632.73C638.04 568.97 642.54 565.06 643.28 559.81C643.68 556.96 643.88 552.97 643.88 547.62C643.88 526.64 638.14 508.14 626.81 492.65C615.64 477.33 599.89 465.5 579.98 457.5C560.75 449.75 538.53 445.83 513.94 445.83C486.73 445.83 462.14 450.54 440.87 459.82C419.05 469.28 401.7 483.26 389.29 501.36C376.74 519.65 370.55 541.3 370.9 565.56C370.9 585.88 376 603.17 386.06 616.96C395.61 630.03 407.04 640.55 420.06 648.24C432.21 655.38 448.07 663.02 467.19 670.95C485.67 678.63 499.43 685.59 508.06 691.64C514.4 696.09 517.35 701.33 517.35 708.14C517.35 714.75 515.22 719.45 510.67 722.91C505.33 726.95 497.45 728.99 487.26 728.99C476.46 728.99 468.62 726.51 463.96 721.63C459.33 716.78 457.42 709.94 458.14 700.73C458.37 697.77 457.35 694.84 455.34 692.67C453.32 690.49 450.49 689.25 447.52 689.25H361.21C355.78 689.25 351.21 693.34 350.62 698.74C349.93 704.98 349.6 709.64 349.6 712.98C349.6 745.99 362.81 771.86 388.85 789.86C413.63 807.05 445.93 815.77 484.86 815.77C513.09 815.77 538.2 810.97 559.47 801.5C581.31 791.82 598.33 778.07 610.06 760.63C621.89 743.04 627.89 722.93 627.89 700.87C627.89 680.6 622.83 663.13 612.85 648.93C603.31 635.35 591.74 624.32 578.43 616.13C566.01 608.54 549.88 600.18 530.5 591.31C512.13 582.9 498.57 575.52 490.2 569.38C481.91 563.31 480.95 557.39 480.95 553.47C480.95 547.03 483.05 542.53 487.79 538.86C493.1 534.72 500.43 532.62 509.58 532.62C517.81 532.62 524.13 534.56 528.41 538.4C532.45 542.01 534.34 546.5 534.34 552.51C534.34 554.94 534.15 555.8 534.14 555.83C533.37 558.98 534.1 562.33 536.13 564.9ZM509.58 521.94C497.97 521.94 488.48 524.78 481.24 530.43C473.96 536.08 470.3 543.75 470.3 553.45C470.3 556.35 470.76 559.1 471.57 561.73C472.27 564 473.28 566.16 474.58 568.22C476.82 571.76 479.89 575.02 483.9 577.96C492.92 584.57 506.99 592.24 526.06 600.98C545.13 609.72 560.73 617.78 572.87 625.2C584.98 632.66 595.39 642.6 604.13 655.04C612.87 667.47 617.24 682.75 617.24 700.86C617.24 720.89 611.88 738.83 601.22 754.67C590.56 770.51 575.19 782.87 555.15 791.75C535.12 800.66 511.67 805.1 484.86 805.1C447.99 805.1 418.01 797.11 394.93 781.09C371.81 765.11 360.26 742.37 360.26 712.96C360.26 710.05 360.58 705.68 361.22 699.89H447.53C446.57 712.18 449.48 721.88 456.27 728.98C463.05 736.08 473.39 739.64 487.28 739.64C499.89 739.64 509.83 736.9 517.12 731.4C524.37 725.9 528.02 718.15 528.02 708.14C528.02 697.8 523.4 689.38 514.2 682.92C504.97 676.46 490.69 669.17 471.29 661.11C452.54 653.33 437.26 645.98 425.47 639.05C413.68 632.09 403.41 622.64 394.68 610.67C386.38 599.3 382.07 585.13 381.66 568.22C381.64 567.33 381.58 566.47 381.58 565.56C381.56 564.26 381.63 563 381.65 561.72C381.99 541.07 387.43 522.93 398.09 507.38C409.38 490.9 425.05 478.29 445.12 469.59C465.15 460.85 488.1 456.48 513.96 456.48C537.23 456.48 557.93 460.1 576.01 467.38C594.12 474.66 608.19 485.18 618.21 498.92C628.23 512.63 633.23 528.9 633.23 547.62C633.23 552.48 633.05 556.04 632.73 558.31H544.5C544.82 557 545 555.08 545 552.48C545 543.42 541.84 536.07 535.52 530.42C529.23 524.78 520.56 521.94 509.58 521.94Z" fill="black"/>
<path d="M909.65 454.49C907.62 452.08 904.63 450.68 901.48 450.68H818.58C813.41 450.68 808.99 454.39 808.09 459.48L747.95 799.82C747.4 802.92 748.26 806.11 750.28 808.52C752.31 810.93 755.3 812.33 758.45 812.33H841.35C846.52 812.33 850.94 808.62 851.84 803.53L911.98 463.19C912.52 460.09 911.67 456.91 909.65 454.49ZM883.75 561.72L882.6 568.21L841.35 801.68H758.45L799.7 568.21L800.85 561.72L818.58 461.34H901.48L883.75 561.72Z" fill="black"/>
<path d="M748.67 323.99H640.06L648.78 274.62L649.93 268.13H598.38H567L565.86 274.62L546 387.02H737.52L748.67 323.99Z" fill="white"/>
<path d="M943.88 561.72H1092.74L1044.52 461.34H961.61L943.88 561.72Z" fill="white"/>
<path d="M1157.53 561.72H1237.81L1269.12 325.61L1269.41 323.99H871.33L880.05 274.62L881.2 268.13H798.28L797.13 274.62L777.27 387.02H1176L1157.53 561.72Z" fill="white"/>
<path d="M398.09 507.38C387.42 522.93 381.98 541.07 381.65 561.72H471.58C470.77 559.09 470.31 556.35 470.31 553.44C470.31 543.74 473.97 536.07 481.25 530.42C488.5 524.77 497.98 521.93 509.59 521.93C520.57 521.93 529.23 524.77 535.52 530.42C541.84 536.07 545 543.42 545 552.48C545 555.07 544.82 556.99 544.5 558.31H632.73C633.05 556.04 633.23 552.48 633.23 547.62C633.23 528.9 628.22 512.63 618.21 498.92C608.19 485.17 594.13 474.66 576.01 467.38C557.93 460.1 537.22 456.48 513.96 456.48C488.1 456.48 465.16 460.85 445.12 469.59C425.05 478.29 409.38 490.89 398.09 507.38Z" fill="white"/>
<path d="M883.75 561.72L901.48 461.34H818.58L800.84 561.72H883.75Z" fill="white"/>
<path d="M379.72 328.39L449.32 385.36L456.22 391.01C461.16 386.86 464.7 381.03 465.91 374.28L485.05 268.13H476.86H390.67H381.78H381.09L371.62 321.77L371.97 322.06L379.72 328.39Z" fill="white"/>
<path d="M338.69 530.11C338.15 533.81 337.62 537.4 337.11 540.81C337.09 540.92 337.08 541.03 337.06 541.15C335.81 549.45 334.68 556.69 333.79 561.72L337.6 540.16L338.69 530.11Z" fill="white"/>
<path d="M572.88 625.19C560.73 617.77 545.14 609.7 526.07 600.97C507 592.23 492.93 584.56 483.91 577.95C479.9 575.01 476.83 571.75 474.59 568.21C473.28 566.15 472.28 563.99 471.58 561.72H381.65C381.63 563 381.56 564.26 381.58 565.56C381.58 566.46 381.64 567.33 381.66 568.22C382.08 585.14 386.38 599.3 394.68 610.67C403.42 622.64 413.68 632.09 425.47 639.05C437.26 645.98 452.54 653.33 471.29 661.11C490.68 669.17 504.96 676.46 514.2 682.92C523.4 689.38 528.02 697.8 528.02 708.14C528.02 718.16 524.36 725.9 517.12 731.4C509.84 736.91 499.89 739.64 487.28 739.64C473.39 739.64 463.06 736.09 456.27 728.98C449.49 721.88 446.57 712.18 447.53 699.89H361.22C360.58 705.68 360.26 710.05 360.26 712.96C360.26 742.37 371.8 765.1 394.93 781.09C418.02 797.11 448 805.1 484.86 805.1C511.68 805.1 535.12 800.66 555.15 791.75C575.18 782.87 590.56 770.51 601.22 754.67C611.88 738.83 617.24 720.89 617.24 700.86C617.24 682.75 612.87 667.47 604.13 655.04C595.4 642.6 584.99 632.65 572.88 625.19Z" fill="#007A3D"/>
<path d="M1157.53 561.72L1156.85 568.21L1145.85 672.25L1095.86 568.21L1092.74 561.72H943.88L942.73 568.21L901.48 801.69H984.38L1021.71 591.77L1123.05 801.69H1205.98L1236.95 568.21L1237.81 561.72H1157.53Z" fill="#007A3D"/>
<path d="M799.7 568.21L758.45 801.69H841.35L882.6 568.21L883.75 561.72H800.84L799.7 568.21Z" fill="#007A3D"/>
<path d="M325.97 561.72H312.8H299.73H249.61L249.6 561.75L240.32 618.82L239.53 623.67L235.56 648.07L234.74 653.12L232.74 664.48C229.19 684.83 221.27 700.53 208.98 711.51C196.69 722.52 180.85 727.99 161.46 727.99C146.96 727.99 135.6 724.93 127.35 718.81L59.71 776.43C60.1 776.77 60.47 777.13 60.87 777.47C82.68 795.9 111.34 805.1 146.93 805.1C174.39 805.1 199.85 799.91 223.3 789.58C246.71 779.25 266.6 763.47 282.94 742.31C299.24 721.14 310.15 695.21 315.65 664.49L322.79 624.07L328.73 590.42L332.65 568.23L333.8 561.74H333.64H325.97V561.72Z" fill="#007A3D"/>
<path d="M187.65 274.62L188.78 268.13L192.24 248.35H279.42L218.02 196.04L119.17 194.05L106.09 268.13L104.94 274.62L85.0898 387.02H167.99L187.65 274.62Z" fill="#FF0000"/>
<path d="M59.7099 776.42L127.35 718.8C126.22 717.96 125.14 717.07 124.13 716.12C115.71 708.2 111.52 696.8 111.52 681.95C111.52 678.72 112.16 672.89 113.47 664.47L130.47 568.2L131.62 561.71L149.35 461.33H66.4499L48.9499 561.71L47.8199 568.2L31.0399 664.47C29.1199 676.12 28.1299 687.1 28.1299 697.43C28.1199 731.71 38.6599 758.03 59.7099 776.42Z" fill="#FF0000"/>
<path d="M370.92 397.69H437.92C444.83 397.69 451.25 395.2 456.23 391.01L449.33 385.36L379.73 328.39L371.99 322.06L371.64 321.77L360.44 385.18C360.29 385.99 360.25 386.79 360.29 387.6C360.41 389.87 361.25 392.07 362.75 393.85C364.77 396.27 367.75 397.69 370.92 397.69Z" fill="#FF0000"/>
<path d="M277.76 461.34C269.98 461.34 263.37 467.05 262.25 474.76L255.21 523.2L249.61 561.71V561.72H299.73H312.8H325.97H333.63H333.79C334.68 556.7 335.81 549.45 337.06 541.15C337.08 541.04 337.09 540.93 337.11 540.81C337.62 537.39 338.15 533.81 338.69 530.11C338.71 529.94 338.74 529.78 338.76 529.62C341.28 512.29 343.97 492.82 345.84 479.11C347.13 469.7 339.81 461.34 330.31 461.34H330.18H278.05H277.76Z" fill="#FF0000"/>
</g>
<defs>
<clipPath id="clip0_5_100">
<rect width="1297.53" height="851.74" fill="white"/>
</clipPath>
</defs>
</svg>
